<?xml version='1.0' encoding="utf-8"?>
<!-- Svg Vector Icons : http://www.onlinewebfonts.com/icon -->
<!DOCTYPE svg PUBLIC "-//W3C//DTD SVG 1.1//EN" "http://www.w3.org/Graphics/SVG/1.1/DTD/svg11.dtd">
<svg version="1.1"
  xmlns="http://www.w3.org/2000/svg" x="0px" y="0px" viewBox="0 0 1000 1000" enable-background="new 0 0 1000 1000" xml:space="preserve">
  <metadata> Svg Vector Icons : http://www.onlinewebfonts.com/icon </metadata>
  <g>
    <g transform="translate(0.000000,512.000000) scale(0.100000,-0.100000)">
      <path d="M4635.6,5010.2c-170.7-55.6-316.4-182.2-387.4-337.5c-38.4-86.3-44.1-134.2-53.7-462.2c-9.6-364.4-9.6-366.3-67.1-458.4c-30.7-49.9-78.6-107.4-105.5-128.5c-26.9-19.2-203.3-99.7-393.1-180.3c-306.9-130.4-358.6-145.8-469.9-147.7c-168.8-1.9-214.8,24.9-489,291.5c-283.8,278.1-358.6,318.3-575.3,318.3c-220.5-1.9-295.3-42.2-567.7-314.5c-272.3-274.3-312.6-349-312.6-567.7c0-214.8,40.3-291.5,316.4-575.3c266.6-274.2,293.4-320.3,291.5-489c-1.9-111.2-17.3-163-147.7-469.9c-80.6-189.9-161.1-366.3-180.3-393.2c-21.1-26.8-78.6-72.9-128.5-105.5c-92.1-57.5-94-57.5-458.4-67.1c-327.9-9.6-375.9-15.3-462.2-53.7C324.4,814.1,217,710.5,151.8,587.8C100,493.8,100,486.1,100,117.9S100-258,151.8-352C217-474.7,324.4-578.3,445.2-633.9c86.3-38.3,134.2-44.1,462.2-53.7c364.4-9.6,366.3-9.6,458.4-67.1c49.9-30.7,107.4-78.6,128.5-105.5c19.2-26.8,99.7-203.3,180.3-393.1c130.4-306.9,145.8-358.6,147.7-469.9c1.9-168.8-24.9-214.8-291.5-489c-276.2-283.8-318.4-358.6-318.4-575.3c0-218.6,42.2-293.4,314.5-567.7c272.3-272.3,347.1-312.6,567.7-312.6c216.7,0,291.5,42.2,575.3,316.4c126.6,122.7,260.8,237.8,297.3,257c42.2,23,111.2,36.4,182.2,36.4c99.7,0,159.2-17.3,460.3-141.9c189.9-76.7,374-161.1,406.6-186c34.5-24.9,86.3-86.3,115.1-136.2c51.8-88.2,53.7-99.7,63.3-454.5c9.6-326,15.3-374,53.7-460.3c55.6-120.8,159.2-228.2,281.9-293.4c94-51.8,101.6-51.8,469.9-51.8s375.9,0,469.9,51.8c122.7,65.2,226.3,172.6,281.9,293.4c38.3,86.3,44.1,134.2,53.7,460.3c9.6,356.7,11.5,366.3,63.3,456.4c28.8,49.9,78.6,109.3,109.3,130.4c63.3,47.9,659.7,299.2,776.7,326c86.3,21.1,203.3,7.7,287.7-34.5c32.6-17.2,161.1-130.4,287.7-253.2c283.8-278.1,358.6-318.3,575.3-316.4c212.9,0,304.9,51.8,567.7,312.6c262.7,260.8,312.6,352.9,312.6,567.7c0,218.6-40.3,287.7-335.6,596.4c-232.1,239.7-245.5,258.9-266.6,362.5c-13.4,61.4-17.3,138.1-11.5,170.7c19.2,95.9,281.9,724.9,331.8,792.1c24.9,34.5,86.3,86.3,136.2,115.1c88.2,51.8,99.7,53.7,454.5,63.3c326,9.6,374,15.3,460.3,53.7c120.8,55.6,228.2,159.2,293.4,281.9c51.8,94,51.8,101.6,51.8,469.9s0,375.9-51.8,469.9c-65.2,122.7-172.6,226.3-293.4,281.9c-86.3,38.4-134.2,44.1-462.2,53.7c-364.4,9.6-366.3,9.6-458.4,67.1c-49.9,32.6-107.4,78.6-128.5,105.5c-19.2,26.9-99.7,203.3-180.3,393.2c-130.4,306.8-145.8,358.6-147.7,469.9c-1.9,168.8,24.9,214.8,291.5,489c274.2,281.9,316.4,356.7,316.4,575.3c0,220.5-40.3,295.4-312.6,567.7c-272.3,272.3-347.1,312.6-567.7,314.5c-216.7,0-291.5-40.3-575.3-318.3c-126.6-122.7-260.8-239.7-297.3-257c-42.2-23-111.2-36.4-182.2-36.4c-99.7,0-159.2,17.2-460.3,141.9c-189.9,76.7-374,161.1-406.6,186c-34.5,24.9-86.3,86.3-115.1,136.2c-51.8,88.2-53.7,99.7-63.3,454.5c-9.6,326-15.3,374-53.7,460.3c-55.6,120.8-159.2,228.2-281.9,293.4c-92.1,49.9-107.4,51.8-441.1,55.6C4838.9,5023.6,4662.5,5017.9,4635.6,5010.2z M5337.5,4690c36.4-17.3,84.4-59.5,109.3-92.1c38.3-55.6,42.2-86.3,51.8-433.4c9.6-354.8,11.5-379.7,61.4-485.2c55.6-118.9,220.5-306.8,310.7-352.9c161.1-82.5,765.2-318.3,861.1-335.6c136.2-24.9,299.2,1.9,450.7,71c78.6,36.4,168.8,109.3,339.5,280c249.3,245.5,304.9,278.1,439.2,255.1c63.3-9.6,111.2-46,283.8-214.8c333.7-326,333.7-379.7-13.4-732.6c-145.7-149.6-253.2-276.2-283.8-337.5c-71-141.9-101.6-326-76.7-464.1c19.2-95.9,258.9-707.7,337.5-859.2c49.9-95.9,209.1-237.8,339.5-301.1c122.7-61.4,124.6-61.4,489-71c410.4-11.5,462.2-26.8,529.3-153.4c53.7-97.8,53.7-592.6,0-690.4c-67.1-126.6-118.9-141.9-529.3-153.4c-364.4-9.6-366.3-9.6-490.9-71c-132.3-65.2-287.7-203.3-337.5-299.2c-80.5-157.3-318.3-765.2-337.5-861.1c-24.9-138.1,5.7-322.2,76.7-464.1c30.7-61.4,138.1-188,283.8-337.5c249.3-253.2,274.2-301.1,249.3-435.4c-9.6-51.8-57.5-115.1-197.5-260.8c-212.9-220.5-304.9-274.2-431.5-253.2c-71,13.4-113.2,46-322.2,251.2c-176.4,174.5-270.4,251.2-349.1,285.8c-149.6,69-312.6,95.9-448.8,71c-97.8-17.3-701.9-253.2-863-335.6c-95.9-49.9-234-205.2-299.2-337.5c-61.4-124.7-61.4-126.6-71-491c-11.5-410.4-26.9-462.2-153.4-529.3c-97.8-53.7-592.6-53.7-690.4,0c-126.6,67.1-141.9,118.9-153.4,529.3c-9.6,345.2-13.4,370.1-61.4,475.6c-55.6,118.9-220.5,306.8-310.7,352.9c-161.1,82.5-765.2,318.3-861.1,335.6c-74.8,13.4-145.8,13.4-226.3-1.9c-211-36.4-306.8-95.9-569.6-352.9c-258.9-251.3-303-276.2-443-251.3c-94,19.2-471.8,383.6-502.5,489c-44.1,143.8-17.3,195.6,243.6,460.3c174.5,176.4,251.2,270.4,285.7,349c69,149.6,95.9,312.6,71,450.7c-17.3,95.9-255.1,703.8-335.6,859.2c-49.9,95.9-209,237.8-339.5,301.1c-122.7,61.4-124.7,61.4-489,71c-410.4,11.5-462.2,26.9-529.3,153.4c-53.7,97.8-53.7,592.6,0,690.4C500.8,589.7,552.6,605,963,616.5c345.2,9.6,370.1,13.4,475.6,61.4c118.9,55.6,306.8,220.5,352.9,310.7c82.5,161.1,318.3,765.2,335.6,861.1c24.9,136.2-1.9,299.2-71,448.8c-34.5,78.6-111.2,172.6-285.7,349c-349,356.7-351,408.5-15.4,734.5c172.6,168.8,220.5,205.2,283.8,214.8c134.2,23,189.9-9.6,439.2-255.1c170.7-170.7,260.8-243.6,339.5-280c151.5-69,314.5-95.9,450.7-71c95.9,17.3,700,253.2,861.1,335.6c90.1,46,255.1,234,310.7,352.9c47.9,105.5,51.8,130.4,61.4,475.6c11.5,410.4,26.9,462.2,153.4,529.3C4746.8,4734.1,5235.9,4737.9,5337.5,4690z"/>
      <path d="M4558.9,2285c-830.4-176.4-1480.6-790.1-1703-1607.1c-46-170.7-49.9-216.7-49.9-560c0-345.2,3.8-389.3,49.9-561.9c209-765.2,807.4-1365.5,1578.4-1580.3c178.3-47.9,216.7-51.8,565.8-51.8s387.4,3.8,565.8,51.8c771,214.8,1369.3,813.2,1574.5,1576.4c61.4,234,84.4,669.3,46,907.1c-128.5,809.3-709.6,1497.8-1480.5,1754.8c-82.5,28.8-218.6,63.3-304.9,80.6C5184.1,2334.9,4769.9,2331.1,4558.9,2285z M5498.6,1959c324.1-94,609.9-262.7,845.7-496.7c235.9-237.8,404.7-523.6,500.6-855.4c38.3-134.2,44.1-195.6,44.1-489s-5.8-354.8-44.1-489c-95.9-331.8-264.7-617.5-500.6-855.3c-237.8-235.9-523.6-404.7-855.3-500.6c-134.2-38.4-195.6-44.1-489-44.1c-293.4,0-354.8,5.8-489,44.1C3855.1-1537.2,3366-1055.8,3164.7-407.6c-47.9,159.2-51.8,191.8-51.8,525.5c0,331.8,3.8,366.3,51.8,523.6c212.9,688.5,753.7,1191,1451.8,1346.3C4808.2,2030,5310.7,2014.6,5498.6,1959z"/>
    </g>
  </g>
</svg>
